<svg width="1436" height="1171" viewBox="0 0 1436 1171" fill="none" xmlns="http://www.w3.org/2000/svg">
<path d="M664.853 37.8767C614.719 78.0101 606.586 84.6767 619.119 75.7434C622.853 73.2101 646.453 56.8101 671.653 39.4767C709.786 13.0767 717.919 7.87675 720.719 8.67675L724.053 9.47675L721.519 5.34341C716.186 -3.85659 719.519 -5.72326 664.853 37.8767Z" fill="#032C86"/>
<path d="M688.186 53.21C660.853 74.9433 637.786 93.4766 636.853 94.2766C631.386 99.8766 643.386 92.01 689.653 60.01C731.786 30.81 741.919 24.41 743.919 25.3433C745.253 26.1433 746.719 26.6766 747.119 26.6766C748.586 26.6766 741.919 15.8766 739.786 14.6766C738.319 13.8766 724.319 24.41 688.186 53.21Z" fill="#032C86"/>
<path d="M714.986 68.8101C688.719 89.7434 666.186 107.877 665.119 108.943C662.986 111.077 671.119 105.61 730.319 64.9434C749.652 51.6101 765.786 40.8101 766.319 40.9434C766.719 41.0767 768.186 41.6101 769.519 42.0101C771.652 42.9434 771.652 42.5434 769.119 38.2767C767.519 35.7434 765.519 32.9434 764.586 32.1434C763.386 31.0767 750.719 40.4101 714.986 68.8101Z" fill="#032C86"/>
<path d="M737.119 86.8099C710.319 108.01 687.919 126.143 687.119 126.943C686.452 127.743 689.652 125.743 694.452 122.543C791.519 55.3432 789.119 56.9432 792.719 58.5432C796.052 60.1432 796.186 60.0099 794.186 57.0766C793.119 55.3432 791.386 52.6766 790.319 50.9432C789.252 49.3432 787.919 48.0099 787.119 48.0099C786.319 48.0099 763.919 65.4766 737.119 86.8099Z" fill="#032C86"/>
<path d="M760.453 103.476C733.386 125.21 710.586 143.476 709.786 144.276C708.319 145.876 713.519 142.41 773.519 100.81C807.253 77.6098 813.786 73.6098 815.919 74.6765C817.253 75.4765 818.453 75.6098 818.453 75.0765C818.453 73.4765 811.786 64.0098 810.719 64.0098C810.186 64.1431 787.653 81.8765 760.453 103.476Z" fill="#032C86"/>
<path d="M784.186 119.877C756.853 141.61 734.053 160.01 733.519 160.677C731.919 162.277 743.119 154.677 792.986 120.143C828.319 95.7434 837.919 89.61 839.386 90.81C840.319 91.7434 841.386 92.1434 841.786 91.8767C842.586 91.0767 835.919 80.01 834.719 80.1434C834.186 80.1434 811.386 98.01 784.186 119.877Z" fill="#032C86"/>
<path d="M574.452 185.077C574.452 244.277 574.852 263.877 576.052 265.077C577.119 266.143 577.119 267.077 576.319 267.877C575.652 268.543 554.186 285.743 528.452 306.01C475.786 347.877 478.186 345.877 481.786 344.543C483.252 344.01 507.386 327.743 535.386 308.41C563.386 289.21 586.586 273.343 586.986 273.343C588.319 273.343 602.452 282.943 602.319 283.877C602.319 284.277 583.652 299.477 560.719 317.61C497.652 367.61 497.386 367.61 572.986 315.477L610.852 289.343L614.719 291.743C616.852 292.943 620.452 295.477 622.586 297.343L626.586 300.677L580.452 337.343C554.986 357.477 533.919 374.41 533.519 375.077C533.119 375.743 537.519 373.077 543.252 368.943C600.186 329.343 633.519 306.677 634.719 306.677C635.652 306.677 639.519 308.943 643.519 311.61L650.719 316.543L647.519 319.077C645.786 320.543 624.452 337.61 600.186 356.943C559.252 389.477 546.319 400.41 562.186 388.943C565.652 386.41 586.186 372.277 607.786 357.343C629.386 342.41 649.652 328.41 652.719 326.277L658.452 322.277L665.786 327.21C669.786 329.877 673.119 332.543 673.119 333.077C673.119 333.61 652.186 350.81 626.452 371.343C600.852 391.743 579.786 408.677 579.786 408.943C579.786 409.343 584.452 406.277 590.186 402.41C595.786 398.41 618.852 382.41 641.386 366.81L682.319 338.543L692.986 346.01C698.986 350.143 704.052 354.01 704.452 354.677C705.252 356.01 566.586 452.543 563.786 452.543C562.586 452.543 530.452 430.81 492.186 404.277C453.919 377.743 422.319 356.01 421.919 356.01C421.519 356.01 421.119 391.343 421.119 434.677C421.119 507.877 421.252 513.343 423.386 514.543C424.719 515.21 425.519 516.143 425.119 516.41C424.719 516.81 402.852 534.277 376.452 555.343C350.052 576.277 328.186 594.143 327.919 594.943C327.252 596.81 323.919 599.077 378.319 561.343C404.452 543.343 427.386 527.477 429.519 526.143C432.719 524.01 433.652 523.877 437.519 525.477C442.852 527.61 449.119 531.877 449.119 533.343C449.119 534.01 429.119 550.41 404.852 569.743C363.119 602.943 352.986 611.077 356.452 609.21C357.119 608.81 380.186 592.943 407.519 574.01C463.252 535.61 456.852 538.41 469.386 546.543L474.452 549.743L426.719 587.61C400.586 608.41 378.586 626.143 377.786 626.943C376.186 628.81 374.719 629.743 432.852 589.477L481.386 556.01L487.519 559.477C495.386 563.743 498.052 566.277 496.452 567.743C495.652 568.41 474.452 585.343 449.119 605.343C423.786 625.343 402.186 642.677 401.119 643.743C398.586 646.277 397.919 646.677 455.519 606.81C482.186 588.41 504.452 573.343 505.119 573.343C506.319 573.343 514.852 578.01 519.786 581.343C521.519 582.543 521.519 582.81 519.652 584.277C518.586 585.21 497.386 602.143 472.719 621.743C448.052 641.477 427.786 657.877 427.786 658.277C427.786 658.677 428.586 658.41 429.519 657.743C431.652 656.01 525.252 591.477 527.386 590.143C529.652 588.943 535.252 592.01 550.719 602.81L563.652 611.877L587.386 595.343C600.452 586.41 611.519 579.21 612.052 579.477C612.586 579.877 613.519 579.077 614.186 577.877C614.852 576.677 615.652 576.01 616.052 576.277C616.452 576.41 639.652 560.943 667.652 541.61C711.919 510.943 718.719 506.677 721.119 508.01C722.586 508.81 723.786 509.077 723.786 508.677C723.786 507.61 716.852 497.343 716.186 497.343C715.786 497.343 713.786 498.543 711.519 500.143C709.386 501.743 707.386 502.677 706.986 502.41C706.719 502.01 706.586 468.943 706.719 428.81L707.119 356.01L712.319 359.477C717.919 363.343 717.252 363.343 726.186 357.61L729.119 355.743V434.01C729.119 507.077 729.252 512.543 731.519 514.143C732.986 515.21 733.386 516.277 732.452 517.077C731.786 517.877 709.519 535.61 683.119 556.677C637.919 592.543 623.119 605.477 642.586 591.877C647.252 588.543 671.386 571.877 696.186 554.81L741.252 523.743L745.519 525.477C750.452 527.477 758.452 532.41 758.319 533.343C758.319 533.743 738.052 550.01 713.386 569.61C671.652 602.81 659.519 612.543 663.119 610.543C663.786 610.01 687.119 594.01 714.986 574.677L765.519 539.743L770.452 542.01C773.119 543.21 776.986 545.477 778.852 547.077L782.452 550.01L733.119 589.21C706.052 610.81 683.786 628.677 683.786 628.943C683.786 629.21 688.452 626.143 694.186 622.143C699.786 618.143 723.652 601.743 746.986 585.61C784.986 559.343 789.919 556.277 792.319 557.743C793.919 558.543 795.386 559.343 795.786 559.343C796.186 559.343 798.719 560.943 801.519 562.81L806.586 566.277L758.186 604.677C710.986 642.143 705.252 646.81 708.719 644.81C709.652 644.277 733.119 628.143 760.719 609.077C788.319 589.877 811.919 574.01 813.119 573.743C815.252 573.21 829.119 580.677 829.119 582.543C829.119 583.077 807.786 600.543 781.786 621.21C755.786 641.877 734.452 659.21 734.452 659.61C734.452 659.877 737.252 658.143 740.852 655.61C744.319 653.21 764.852 638.943 786.452 624.01C808.052 609.077 828.186 595.21 831.252 593.077C837.919 588.277 838.452 588.543 858.319 602.277L872.186 612.01L878.319 607.61C897.786 593.61 918.986 579.477 919.252 580.01C919.519 580.41 920.586 579.477 921.786 578.01C922.986 576.543 923.519 576.277 922.986 577.343C922.319 578.41 924.852 577.21 928.452 574.543C932.186 571.877 955.652 555.477 980.852 538.143C1020.32 510.81 1026.85 506.81 1029.12 508.01C1030.59 508.81 1031.79 508.943 1031.79 508.41C1031.79 506.943 1025.25 497.343 1024.32 497.343C1023.92 497.343 1021.92 498.543 1020.05 500.143L1016.45 502.943L1015.79 428.81L1015.12 354.677L943.919 404.143C889.252 442.01 872.186 453.343 870.452 452.41C864.852 449.743 730.586 355.61 731.119 354.81C731.386 354.277 739.386 348.543 748.719 342.01C813.786 296.943 850.052 271.743 860.319 264.277C871.119 256.41 872.319 255.877 875.519 257.21C878.719 258.81 878.852 258.677 876.852 255.743C875.786 254.01 874.052 251.343 872.986 249.61C870.719 246.01 869.786 246.01 865.386 249.477L861.786 252.277L861.119 179.477L860.452 106.543L842.452 119.077C832.586 125.877 800.452 148.143 771.252 168.41C721.786 202.81 717.919 205.21 715.252 203.61C713.652 202.543 681.652 180.277 644.052 154.143C606.319 128.01 575.386 106.677 574.986 106.677C574.719 106.677 574.452 142.01 574.452 185.077Z" fill="#032C86"/>
<path d="M511.786 285.476C484.986 306.81 462.186 325.076 461.119 326.143C460.052 327.343 482.719 311.876 511.653 291.876C558.319 259.743 564.453 255.743 566.719 257.21C568.186 258.143 569.519 258.676 569.786 258.41C570.453 257.743 563.253 247.61 561.786 247.076C561.119 246.943 538.586 264.143 511.786 285.476Z" fill="#032C86"/>
<path d="M841.119 302.543C813.652 324.41 790.986 343.21 790.586 344.143C790.186 345.61 790.452 345.61 791.919 344.543C792.986 343.743 816.586 327.21 844.452 308.01C892.186 274.943 895.252 273.077 898.719 274.41C902.186 275.743 902.319 275.61 900.852 272.943C898.052 267.343 894.319 262.677 892.719 262.677C891.786 262.677 868.586 280.677 841.119 302.543Z" fill="#032C86"/>
<path d="M868.986 317.476C842.986 338.143 820.586 356.143 819.119 357.61C816.986 359.743 864.053 327.61 910.053 295.61C918.719 289.61 920.053 289.076 922.986 290.41L926.319 291.876L922.719 286.01C920.719 282.676 918.453 280.01 917.653 280.01C916.719 280.01 894.853 296.81 868.986 317.476Z" fill="#032C86"/>
<path d="M891.786 334.81C864.986 356.01 842.186 374.41 841.119 375.477C840.053 376.677 862.719 361.343 891.386 341.343C936.986 309.877 944.052 305.343 946.452 306.677C947.919 307.477 949.119 307.743 949.119 307.343C949.119 306.143 942.186 296.01 941.252 296.01C940.852 296.01 918.586 313.477 891.786 334.81Z" fill="#032C86"/>
<path d="M914.853 351.877C872.053 385.877 857.119 398.143 865.119 392.543C866.186 391.743 889.519 375.61 916.853 356.81C958.853 327.743 967.119 322.543 969.919 323.21L973.386 324.143L970.853 320.01C965.519 310.81 968.719 308.81 914.853 351.877Z" fill="#032C86"/>
<path d="M937.786 368.81C888.586 408.01 879.786 415.343 892.453 406.41C896.186 403.877 919.786 387.477 944.986 370.01C987.519 340.677 990.986 338.543 994.186 339.877L997.386 341.477L994.053 335.743C992.186 332.543 989.919 329.877 988.853 329.743C987.919 329.477 964.986 347.077 937.786 368.81Z" fill="#032C86"/>
<path d="M356.319 537.477C328.452 559.477 305.252 578.143 304.452 578.943C303.786 579.743 306.986 577.743 311.786 574.41C330.719 561.21 407.252 508.543 408.852 507.477C409.786 506.943 411.386 507.21 412.586 508.143C413.652 508.943 414.852 509.477 415.119 509.077C415.919 508.41 408.852 497.343 407.652 497.343C407.119 497.343 384.052 515.343 356.319 537.477Z" fill="#032C86"/>
<path d="M994.453 554.143C966.186 576.676 942.986 595.61 942.853 596.276C942.719 596.81 942.986 596.81 943.386 596.01C943.653 595.343 944.586 594.676 945.386 594.676C946.186 594.676 969.786 578.81 997.919 559.343C1026.05 539.876 1049.92 524.01 1050.85 524.01C1051.79 524.01 1053.39 524.81 1054.32 525.61C1055.92 527.076 1056.05 526.81 1055.25 524.676C1053.79 520.543 1048.59 513.343 1047.12 513.343C1046.45 513.343 1022.72 531.743 994.453 554.143Z" fill="#032C86"/>
<path d="M1022.85 568.41C982.852 600.41 965.519 614.677 974.452 608.41C981.919 603.21 1071.39 541.61 1072.72 540.81C1073.65 540.277 1075.65 540.543 1077.12 541.343C1078.59 542.143 1079.79 542.41 1079.79 542.01C1079.79 540.143 1072.59 530.677 1071.25 530.81C1070.45 530.81 1048.72 547.743 1022.85 568.41Z" fill="#032C86"/>
<path d="M1046.99 584.81C1020.72 605.743 998.186 623.743 997.119 624.943C994.986 627.077 998.319 624.943 1060.32 582.277C1080.72 568.143 1097.79 556.81 1098.32 556.943C1098.72 557.077 1100.32 557.61 1101.65 558.143C1104.19 559.077 1104.19 559.077 1101.65 554.81C1095.92 545.077 1099.52 543.077 1046.99 584.81Z" fill="#032C86"/>
<path d="M1069.79 602.143C1022.19 640.01 1011.65 648.677 1024.45 639.877C1113.25 578.143 1121.25 572.943 1124.72 574.543L1128.05 576.143L1124.72 570.41C1122.85 567.21 1120.59 564.543 1119.52 564.277C1118.59 564.143 1096.19 581.077 1069.79 602.143Z" fill="#032C86"/>
<path d="M1093.12 618.81C1066.32 640.143 1043.92 658.143 1043.12 658.943C1041.39 660.943 1042.19 660.41 1097.65 622.01C1140.32 592.543 1145.79 589.077 1148.05 590.543C1149.52 591.477 1150.85 592.01 1151.12 591.743C1151.79 591.077 1144.59 580.943 1143.12 580.41C1142.45 580.277 1119.92 597.477 1093.12 618.81Z" fill="#032C86"/>
<path d="M266.453 684.277V763.343L336.986 812.277C375.786 839.21 408.186 861.477 408.986 861.61C409.786 861.877 442.453 839.743 481.653 812.677L552.986 763.343L553.119 684.81C553.119 617.077 552.853 606.543 551.253 607.077C550.186 607.477 518.053 629.61 479.786 656.01C440.453 683.343 409.653 704.01 408.586 703.61C406.853 702.943 280.719 615.743 270.853 608.41L266.453 605.21V684.277Z" fill="#032C86"/>
<path d="M789.786 654.81C750.986 681.877 718.586 704.01 717.786 704.01C717.119 704.01 684.986 682.01 646.453 655.343C608.053 628.543 576.053 606.677 575.519 606.677C574.853 606.677 574.453 641.877 574.453 684.943L574.586 763.343L645.786 812.677C685.119 839.743 717.786 861.877 718.586 861.61C719.386 861.477 751.786 839.21 790.586 812.277L861.119 763.343V684.277C861.119 640.943 860.986 605.343 860.853 605.477C860.586 605.477 828.719 627.743 789.786 654.81Z" fill="#032C86"/>
<path d="M883.786 685.21V763.743L954.986 813.21L1026.19 862.677L1097.65 813.077L1169.12 763.61V685.077C1169.12 642.01 1168.72 606.677 1168.32 606.677C1167.92 606.677 1136.59 628.277 1098.59 654.677C1060.59 681.077 1028.45 702.943 1027.39 703.477C1026.05 704.01 1000.99 687.343 955.119 655.477C916.453 628.677 884.586 606.677 884.319 606.677C884.053 606.677 883.786 642.01 883.786 685.21Z" fill="#032C86"/>
<path d="M18.5859 924.81C14.0526 928.01 12.1859 933.743 10.3193 950.01C8.8526 962.677 8.0526 965.077 4.8526 968.677C1.6526 972.41 1.38593 973.21 2.98593 975.343C4.0526 976.81 5.38593 977.343 6.4526 976.677C7.78593 975.877 7.91927 978.143 7.2526 987.477C6.71927 994.01 5.51927 1020.28 4.4526 1046.01C2.58593 1091.08 1.78593 1103.08 0.319268 1113.61C-0.347399 1118.01 -0.080732 1118.68 2.18593 1118.68C5.91927 1118.68 6.8526 1113.21 11.7859 1062.01C21.2526 964.943 21.3859 963.077 27.2526 951.21C33.5193 938.543 34.0526 930.41 28.7193 925.877C24.3193 922.143 22.7193 921.877 18.5859 924.81Z" fill="#032C86"/>
<path d="M949.786 984.543C926.586 995.477 909.119 1018.41 909.119 1037.74C909.119 1050.81 916.453 1061.21 934.719 1074.54C943.653 1080.94 945.119 1083.21 945.119 1090.41C945.119 1098.81 940.853 1103.61 925.119 1112.28C908.053 1121.88 903.786 1125.61 903.786 1131.48C903.786 1140.54 911.253 1142.54 921.253 1136.28C924.586 1134.14 932.053 1127.21 937.786 1120.68C944.719 1113.08 952.319 1106.54 959.519 1101.88C965.519 1097.88 970.853 1094.68 971.119 1094.68C971.519 1094.68 971.786 1097.74 971.786 1101.48C971.786 1107.48 972.319 1108.81 976.319 1112.81C979.919 1116.41 981.919 1117.34 985.919 1117.34C998.586 1117.34 1014.72 1105.61 1038.59 1079.34L1056.45 1059.61L1057.25 1069.08C1058.05 1080.54 1061.52 1086.28 1073.39 1096.14C1078.05 1099.88 1081.92 1103.48 1082.19 1104.01C1082.45 1104.68 1077.65 1106.68 1071.52 1108.68C1046.99 1116.81 1033.92 1125.48 1029.65 1136.68C1024.99 1149.21 1031.39 1162.41 1044.85 1167.61C1053.92 1171.08 1072.59 1170.68 1082.59 1166.81C1108.72 1156.81 1116.45 1135.21 1101.79 1113.34L1097.25 1106.54L1104.19 1103.48C1108.05 1101.88 1114.99 1098.01 1119.79 1095.21L1128.45 1089.88L1127.25 1097.34C1125.79 1106.01 1126.59 1110.14 1130.59 1115.08C1132.72 1117.88 1134.45 1118.68 1138.72 1118.68C1143.52 1118.68 1144.99 1117.88 1151.39 1111.48C1156.72 1106.14 1158.45 1104.94 1158.05 1107.08C1155.65 1117.08 1155.52 1120.41 1157.79 1126.14C1160.45 1133.21 1165.79 1136.68 1172.05 1135.21C1180.05 1133.48 1191.92 1119.88 1213.52 1088.01C1227.39 1067.48 1233.39 1059.34 1234.59 1059.48C1235.25 1059.61 1237.39 1059.74 1239.52 1059.88C1247.39 1060.28 1247.52 1061.34 1240.19 1076.94C1230.99 1096.41 1226.45 1111.34 1226.45 1122.28C1226.45 1138.01 1232.72 1144.81 1244.19 1141.34C1251.25 1139.21 1267.25 1123.34 1281.25 1104.81L1291.12 1091.48L1291.79 1100.14C1292.59 1110.14 1294.45 1113.88 1299.79 1116.68C1308.85 1121.34 1317.92 1117.88 1325.92 1106.68C1330.32 1100.54 1331.12 1100.01 1336.32 1100.01C1347.52 1100.01 1356.19 1093.61 1373.52 1072.81L1376.72 1068.81L1380.99 1081.48C1386.99 1099.48 1385.92 1107.74 1377.12 1113.61C1373.39 1116.14 1372.32 1117.74 1372.05 1121.88C1370.99 1135.21 1384.32 1132.94 1393.65 1118.14C1397.65 1112.01 1399.52 1110.54 1406.99 1107.34C1411.79 1105.34 1420.05 1102.68 1425.39 1101.34C1430.59 1100.14 1435.12 1098.54 1435.39 1097.88C1436.05 1095.88 1414.59 1098.41 1402.05 1101.74C1401.39 1101.88 1400.72 1098.94 1400.45 1095.21C1399.92 1086.81 1397.52 1080.94 1389.39 1068.01C1385.92 1062.54 1383.12 1056.54 1383.12 1054.81C1383.12 1050.68 1379.25 1048.14 1376.19 1050.14C1374.59 1051.08 1373.79 1053.48 1373.65 1057.08C1373.52 1063.34 1369.52 1070.68 1360.45 1081.74C1353.65 1089.88 1342.59 1096.54 1336.72 1095.74L1333.39 1095.34L1336.85 1087.34C1339.52 1081.21 1340.32 1077.08 1340.32 1069.61C1340.45 1060.41 1340.19 1059.61 1336.59 1056.41C1333.25 1053.61 1331.65 1053.21 1326.99 1053.74C1323.92 1054.01 1319.52 1055.61 1317.25 1057.21C1314.99 1058.81 1312.59 1059.88 1311.79 1059.34C1308.59 1057.34 1302.59 1062.81 1298.32 1071.61C1292.99 1082.54 1273.25 1109.08 1261.52 1120.94C1253.12 1129.34 1243.79 1135.08 1240.19 1133.74C1236.05 1132.14 1239.65 1119.61 1252.05 1092.01C1264.45 1064.54 1264.05 1065.88 1261.65 1063.34C1258.32 1060.14 1255.79 1059.08 1244.59 1056.81C1231.92 1054.28 1229.12 1054.14 1229.12 1056.41C1229.12 1058.14 1225.12 1064.14 1204.32 1094.01C1188.45 1116.94 1174.45 1129.88 1170.32 1125.74C1168.59 1124.01 1174.19 1108.41 1182.59 1091.74L1189.12 1078.81L1186.19 1076.01C1184.59 1074.54 1181.39 1072.81 1179.12 1072.14C1174.45 1070.81 1174.99 1070.14 1163.92 1087.34C1159.65 1093.88 1153.39 1101.88 1149.92 1105.08C1138.45 1115.74 1137.79 1109.74 1148.05 1087.61C1155.25 1072.01 1155.65 1068.28 1149.79 1065.61C1142.45 1062.28 1140.32 1063.34 1135.52 1072.94C1133.12 1078.01 1129.65 1083.34 1127.79 1084.94C1124.05 1088.28 1105.79 1097.48 1098.19 1100.01L1093.12 1101.61L1083.12 1092.54C1073.39 1083.88 1067.79 1075.48 1067.79 1069.74C1067.79 1059.61 1078.45 1036.68 1089.25 1023.74C1092.72 1019.61 1095.92 1014.81 1096.45 1013.34C1097.52 1009.88 1093.92 1005.34 1089.92 1005.34C1085.12 1005.34 1072.99 1019.61 1066.45 1032.68C1062.59 1040.68 1055.39 1051.21 1045.12 1064.01C1018.72 1097.34 1004.72 1109.34 992.719 1109.34C984.986 1109.34 983.786 1106.41 987.119 1094.94C988.986 1088.94 989.919 1087.74 996.319 1084.01C1000.32 1081.74 1005.39 1077.88 1007.65 1075.21C1017.39 1064.28 1008.32 1054.54 993.919 1060.54C987.253 1063.34 979.919 1071.48 975.519 1080.68C972.053 1088.14 970.853 1089.48 963.919 1093.21C959.653 1095.48 955.786 1097.34 955.519 1097.34C955.119 1097.34 955.119 1094.41 955.519 1090.68C956.453 1080.14 951.653 1071.74 937.653 1059.88C931.386 1054.68 925.119 1048.41 923.653 1046.14C918.319 1037.48 921.519 1019.74 930.453 1008.28C932.053 1006.41 939.386 1001.74 946.719 998.01C961.119 990.81 964.053 988.143 961.653 984.277C959.519 980.943 957.253 980.943 949.786 984.543ZM1333.65 1059.34C1336.59 1062.41 1337.52 1066.28 1336.59 1072.54C1335.39 1080.14 1328.45 1094.68 1325.92 1094.68C1322.99 1094.68 1314.99 1086.28 1314.19 1082.41C1313.92 1080.68 1314.32 1077.48 1315.25 1075.34C1316.19 1073.08 1316.99 1069.48 1317.12 1067.08C1317.12 1059.48 1328.45 1054.14 1333.65 1059.34ZM1001.92 1073.88C999.786 1077.21 994.453 1080.94 994.453 1079.08C994.453 1077.74 1002.85 1069.21 1003.52 1070.01C1003.92 1070.28 1003.12 1072.14 1001.92 1073.88ZM1321.12 1096.68C1324.99 1097.88 1324.45 1099.74 1318.85 1104.94C1315.39 1108.01 1312.72 1109.34 1310.45 1109.08C1307.39 1108.68 1307.12 1108.28 1307.25 1101.34C1307.25 1097.34 1308.05 1092.28 1308.99 1090.14L1310.59 1086.14L1314.59 1091.08C1316.72 1093.74 1319.65 1096.28 1321.12 1096.68ZM1094.05 1117.74C1104.72 1133.61 1099.92 1147.74 1081.52 1154.68C1068.32 1159.61 1050.19 1158.41 1044.45 1152.01C1041.25 1148.41 1040.45 1139.88 1042.85 1135.08C1044.05 1132.81 1048.05 1129.08 1051.79 1126.68C1059.79 1121.61 1084.85 1110.68 1087.79 1111.08C1088.85 1111.21 1091.65 1114.28 1094.05 1117.74Z" fill="#032C86"/>
<path d="M188.052 997.61C187.386 998.543 184.586 1003.61 182.052 1008.81C176.452 1019.88 176.186 1020.01 154.186 1020.01H141.119V1024.94V1029.74L157.252 1028.94C172.319 1028.14 173.386 1028.14 172.452 1030.41C169.786 1036.94 162.052 1060.68 159.519 1070.01C157.119 1079.48 155.652 1082.01 146.852 1092.94C124.852 1120.28 105.119 1133.08 105.119 1120.14C105.119 1113.21 111.519 1093.74 120.452 1074.01C125.252 1063.34 129.119 1053.88 129.119 1052.81C129.119 1050.01 124.452 1046.68 119.519 1045.88C110.052 1044.28 102.719 1051.21 80.0525 1083.08C66.8525 1101.48 60.3191 1108.94 58.7191 1107.34C57.6525 1106.41 62.1858 1095.34 69.9191 1079.61C73.9191 1071.74 77.1191 1063.48 77.1191 1061.48C77.1191 1053.88 68.0525 1050.68 62.7191 1056.28C61.2525 1058.01 57.7858 1064.01 55.1191 1069.61L50.1858 1079.88L39.6525 1082.14C32.5858 1083.74 29.1191 1085.08 29.1191 1086.41C29.1191 1087.88 31.1191 1088.14 38.4525 1087.74L47.9191 1087.34L46.8525 1091.34C46.1858 1093.48 45.7858 1099.08 45.7858 1103.61C45.7858 1110.41 46.3191 1112.41 48.9858 1115.21C52.4525 1118.81 56.8525 1119.61 61.2525 1117.34C62.7191 1116.54 70.9858 1105.21 79.6525 1092.14C94.5858 1069.74 108.719 1051.21 109.919 1052.28C110.186 1052.68 108.052 1058.28 105.119 1064.81C88.0525 1103.74 88.3191 1133.34 105.786 1133.34C114.452 1133.34 129.386 1121.21 146.186 1100.68C151.652 1094.01 154.586 1091.21 153.919 1093.34C153.386 1095.21 152.586 1102.41 152.186 1109.34C151.519 1120.01 151.786 1122.94 153.786 1126.68C156.852 1132.68 157.919 1133.34 164.719 1133.34C172.452 1133.34 187.519 1123.08 204.452 1106.01L217.919 1092.54V1099.34C218.052 1116.28 229.519 1121.74 246.852 1112.81C257.652 1107.08 268.452 1097.88 280.852 1083.61C287.519 1076.14 294.986 1067.88 297.652 1065.48L302.452 1060.81V1065.21C302.452 1076.68 304.986 1081.48 317.252 1093.48L329.119 1105.08L318.052 1108.68C285.252 1119.61 273.519 1129.74 274.719 1146.68C275.386 1156.54 279.386 1162.01 288.986 1166.54C298.852 1171.08 316.452 1171.34 328.052 1167.08C354.319 1157.48 362.186 1136.94 348.452 1114.14L344.052 1106.68L356.852 1100.01C373.119 1091.74 381.519 1084.41 391.252 1070.01C396.319 1062.54 399.652 1058.81 400.852 1059.34C401.786 1059.74 403.919 1060.01 405.519 1060.01C412.052 1060.01 412.586 1061.88 408.186 1070.28C401.786 1082.54 394.852 1101.08 392.452 1112.41C389.386 1127.88 391.919 1138.14 399.786 1141.34C410.719 1145.88 422.319 1136.14 453.386 1096.01C456.186 1092.28 456.852 1092.01 456.186 1094.28C455.119 1098.81 456.986 1106.54 459.919 1109.48C462.719 1112.28 469.119 1112.81 473.519 1110.54C475.119 1109.74 479.386 1106.28 482.986 1102.81C487.119 1098.94 489.119 1097.61 488.586 1099.34C488.052 1100.81 487.252 1105.61 486.852 1110.14C485.386 1126.54 494.052 1136.28 505.786 1131.48C511.252 1129.21 526.452 1114.94 538.586 1100.94C542.986 1096.01 546.453 1092.41 546.453 1092.94C546.453 1093.61 545.519 1098.68 544.453 1104.41C541.919 1117.61 541.919 1134.68 544.319 1140.54C552.453 1160.01 576.453 1150.81 603.519 1117.74C614.186 1104.68 630.319 1082.68 630.453 1080.94C630.586 1077.21 625.386 1082.28 614.453 1096.81C591.653 1127.21 574.319 1142.01 562.853 1141.08L557.786 1140.68L557.386 1133.34C556.853 1124.68 558.719 1114.14 563.119 1100.94C565.919 1092.54 567.653 1089.88 577.253 1080.01C605.519 1050.41 623.786 1022.94 623.786 1009.61C623.786 992.943 602.453 995.343 584.453 1014.01C573.519 1025.48 559.653 1051.21 552.453 1073.34C549.786 1081.61 545.386 1087.61 529.119 1104.54C512.452 1122.01 499.786 1129.08 499.786 1120.94C499.786 1115.88 503.652 1104.41 511.119 1086.68C514.986 1077.48 518.452 1069.21 518.719 1068.14C519.252 1065.74 510.986 1060.01 507.119 1060.01C505.119 1060.01 503.519 1061.48 502.052 1064.81C499.919 1069.21 497.119 1070.01 497.119 1066.01C497.119 1060.68 485.652 1056.94 478.052 1059.88C472.986 1061.88 465.252 1069.21 462.452 1074.68C458.319 1082.68 439.786 1106.54 428.719 1118.28C414.452 1133.08 403.786 1138.14 403.786 1130.01C403.786 1124.41 409.386 1108.81 418.586 1088.81C423.652 1077.88 427.786 1067.61 427.786 1066.01C427.786 1062.14 421.919 1059.21 407.919 1056.41C396.586 1054.14 393.119 1054.54 393.119 1058.14C393.119 1061.48 379.919 1079.74 373.919 1084.68C367.786 1089.61 358.186 1094.68 347.119 1098.81L339.786 1101.61L332.052 1094.94C312.986 1078.28 311.252 1073.21 317.919 1054.41C322.319 1042.28 327.386 1033.34 335.119 1024.01C338.452 1020.01 341.519 1015.21 342.052 1013.48C343.786 1006.81 337.519 1003.34 331.252 1007.48C326.052 1010.81 316.319 1024.41 310.852 1035.88C305.919 1046.14 300.586 1053.34 276.719 1081.61C258.719 1102.94 245.652 1111.48 234.986 1108.81C231.652 1107.88 231.519 1107.48 232.052 1101.61C232.986 1092.14 235.652 1088.14 244.319 1082.81C253.652 1077.08 257.519 1072.28 257.519 1066.54C257.519 1060.68 254.052 1058.28 246.586 1059.08C238.586 1060.01 230.852 1065.74 224.052 1076.01C213.252 1092.54 189.786 1115.61 177.519 1121.88C172.719 1124.28 166.986 1124.68 165.786 1122.68C162.986 1118.14 180.586 1058.14 195.652 1021.08C199.386 1011.88 202.452 1003.74 202.452 1002.94C202.452 998.01 191.119 993.877 188.052 997.61ZM616.853 1010.28C617.519 1014.81 611.786 1027.88 603.786 1039.74C596.053 1051.34 571.919 1080.54 570.853 1079.61C569.119 1077.88 590.319 1035.34 600.719 1019.61C608.453 1007.88 615.919 1003.61 616.853 1010.28ZM492.852 1068.28C495.252 1070.68 494.719 1078.54 491.919 1084.81C485.252 1099.48 466.452 1111.88 466.452 1101.61C466.452 1095.61 473.919 1081.88 481.386 1074.01C488.986 1066.28 490.186 1065.61 492.852 1068.28ZM250.452 1070.01C250.452 1071.21 242.052 1080.01 240.852 1080.01C240.186 1080.01 241.519 1077.61 243.786 1074.68C247.386 1070.01 250.452 1067.88 250.452 1070.01ZM339.519 1116.94C348.452 1131.08 348.052 1140.14 338.052 1148.68C327.786 1157.48 307.786 1160.41 295.386 1154.94C290.186 1152.68 289.119 1151.48 287.786 1146.81C285.252 1137.21 290.186 1130.14 305.119 1122.68C312.852 1118.68 332.052 1110.81 333.919 1110.68C334.852 1110.68 337.252 1113.48 339.519 1116.94Z" fill="#032C86"/>
<path d="M762.452 1000.81C760.186 1002.81 755.919 1007.88 752.986 1012.14C746.986 1021.08 733.119 1048.54 728.986 1060.28L726.052 1068.28L722.852 1064.28C714.852 1054.01 698.319 1056.68 686.452 1070.28C672.586 1086.01 668.586 1114.01 678.986 1122.54C682.052 1125.21 691.252 1124.54 696.319 1121.48C700.986 1118.54 712.319 1106.94 715.919 1101.34C718.052 1098.14 718.052 1098.41 717.519 1107.48C716.719 1118.54 718.586 1125.61 723.519 1130.94C726.452 1134.14 728.052 1134.68 733.652 1134.68C747.119 1134.68 763.386 1122.94 778.719 1102.28C782.452 1097.34 785.652 1093.34 785.786 1093.34C786.052 1093.34 786.186 1096.41 786.186 1100.14C786.186 1107.61 788.852 1112.54 794.586 1115.88C799.519 1118.68 808.586 1116.81 818.452 1110.94C826.852 1106.14 850.452 1084.28 850.452 1081.48C850.452 1078.01 846.586 1080.68 836.452 1091.21C825.252 1103.08 815.119 1109.34 806.986 1109.34C801.919 1109.34 799.786 1107.21 799.786 1102.01C799.919 1094.14 804.052 1087.88 812.452 1082.81C820.452 1077.88 826.452 1070.94 826.452 1066.54C826.452 1065.08 825.119 1062.68 823.652 1061.21C817.119 1054.68 801.786 1061.34 793.519 1074.01C769.386 1110.94 750.586 1128.54 737.786 1126.14C732.052 1125.08 731.119 1122.14 732.319 1109.08C735.119 1079.34 749.919 1041.21 769.252 1014.54C777.519 1003.08 778.186 1001.61 775.519 998.943C772.852 996.277 766.852 997.21 762.452 1000.81ZM721.252 1071.61C725.786 1083.61 711.519 1108.14 696.052 1114.94C685.519 1119.61 684.186 1116.14 690.319 1100.41C694.452 1090.14 704.186 1075.34 709.919 1070.81C714.986 1066.81 719.519 1067.21 721.252 1071.61ZM816.319 1072.94C815.119 1075.08 812.986 1077.34 811.919 1078.28C807.652 1081.48 807.786 1079.88 811.919 1074.68C816.852 1068.68 820.052 1067.48 816.319 1072.94Z" fill="#032C86"/>
</svg>
