<svg width="1436" height="1171" viewBox="0 0 1436 1171" fill="none" xmlns="http://www.w3.org/2000/svg">
<path d="M665.067 38.5334C614.933 78.6667 606.8 85.3334 619.333 76.4C623.067 73.8667 646.667 57.4667 671.867 40.1334C710 13.7334 718.133 8.53336 720.933 9.33336L724.267 10.1334L721.733 6.00003C716.4 -3.19997 719.733 -5.06664 665.067 38.5334Z" fill="white"/>
<path d="M688.4 53.8666C661.067 75.5999 638 94.1333 637.067 94.9333C631.6 100.533 643.6 92.6666 689.867 60.6666C732 31.4666 742.133 25.0666 744.133 25.9999C745.467 26.7999 746.933 27.3333 747.333 27.3333C748.8 27.3333 742.133 16.5333 740 15.3333C738.533 14.5333 724.533 25.0666 688.4 53.8666Z" fill="white"/>
<path d="M715.2 69.4667C688.934 90.4 666.4 108.533 665.334 109.6C663.2 111.733 671.334 106.267 730.534 65.6C749.867 52.2667 766 41.4667 766.534 41.6C766.934 41.7334 768.4 42.2667 769.734 42.6667C771.867 43.6 771.867 43.2 769.334 38.9334C767.734 36.4 765.734 33.6 764.8 32.8C763.6 31.7334 750.934 41.0667 715.2 69.4667Z" fill="white"/>
<path d="M737.333 87.4666C710.533 108.667 688.133 126.8 687.333 127.6C686.667 128.4 689.867 126.4 694.667 123.2C791.733 56 789.333 57.6 792.933 59.2C796.267 60.8 796.4 60.6666 794.4 57.7333C793.333 56 791.6 53.3333 790.533 51.6C789.467 50 788.133 48.6666 787.333 48.6666C786.533 48.6666 764.133 66.1333 737.333 87.4666Z" fill="white"/>
<path d="M760.667 104.133C733.6 125.867 710.8 144.133 710 144.933C708.533 146.533 713.733 143.067 773.733 101.467C807.467 78.2666 814 74.2666 816.133 75.3333C817.467 76.1333 818.667 76.2666 818.667 75.7333C818.667 74.1333 812 64.6666 810.933 64.6666C810.4 64.8 787.867 82.5333 760.667 104.133Z" fill="white"/>
<path d="M784.4 120.533C757.067 142.267 734.267 160.667 733.733 161.333C732.133 162.933 743.333 155.333 793.2 120.8C828.533 96.4 838.133 90.2667 839.6 91.4667C840.533 92.4 841.6 92.8 842 92.5333C842.8 91.7333 836.133 80.6667 834.933 80.8C834.4 80.8 811.6 98.6667 784.4 120.533Z" fill="white"/>
<path d="M574.667 185.733C574.667 244.933 575.067 264.533 576.267 265.733C577.333 266.8 577.333 267.733 576.533 268.533C575.867 269.2 554.4 286.4 528.667 306.667C476 348.533 478.4 346.533 482 345.2C483.467 344.667 507.6 328.4 535.6 309.067C563.6 289.867 586.8 274 587.2 274C588.533 274 602.667 283.6 602.533 284.533C602.533 284.933 583.867 300.133 560.933 318.267C497.867 368.267 497.6 368.267 573.2 316.133L611.067 290L614.933 292.4C617.067 293.6 620.667 296.133 622.8 298L626.8 301.333L580.667 338C555.2 358.133 534.133 375.067 533.733 375.733C533.333 376.4 537.733 373.733 543.467 369.6C600.4 330 633.733 307.333 634.933 307.333C635.867 307.333 639.733 309.6 643.733 312.267L650.933 317.2L647.733 319.733C646 321.2 624.667 338.267 600.4 357.6C559.467 390.133 546.533 401.067 562.4 389.6C565.867 387.067 586.4 372.933 608 358C629.6 343.067 649.867 329.067 652.933 326.933L658.667 322.933L666 327.867C670 330.533 673.333 333.2 673.333 333.733C673.333 334.267 652.4 351.467 626.667 372C601.067 392.4 580 409.333 580 409.6C580 410 584.667 406.933 590.4 403.067C596 399.067 619.067 383.067 641.6 367.467L682.533 339.2L693.2 346.667C699.2 350.8 704.267 354.667 704.667 355.333C705.467 356.667 566.8 453.2 564 453.2C562.8 453.2 530.667 431.467 492.4 404.933C454.133 378.4 422.533 356.667 422.133 356.667C421.733 356.667 421.333 392 421.333 435.333C421.333 508.533 421.467 514 423.6 515.2C424.933 515.867 425.733 516.8 425.333 517.067C424.933 517.467 403.067 534.933 376.667 556C350.267 576.933 328.4 594.8 328.133 595.6C327.467 597.467 324.133 599.733 378.533 562C404.667 544 427.6 528.133 429.733 526.8C432.933 524.667 433.867 524.533 437.733 526.133C443.067 528.267 449.333 532.533 449.333 534C449.333 534.667 429.333 551.067 405.067 570.4C363.333 603.6 353.2 611.733 356.667 609.867C357.333 609.467 380.4 593.6 407.733 574.667C463.467 536.267 457.067 539.067 469.6 547.2L474.667 550.4L426.933 588.267C400.8 609.067 378.8 626.8 378 627.6C376.4 629.467 374.933 630.4 433.067 590.133L481.6 556.667L487.733 560.133C495.6 564.4 498.267 566.933 496.667 568.4C495.867 569.067 474.667 586 449.333 606C424 626 402.4 643.333 401.333 644.4C398.8 646.933 398.133 647.333 455.733 607.467C482.4 589.067 504.667 574 505.333 574C506.533 574 515.067 578.667 520 582C521.733 583.2 521.733 583.467 519.867 584.933C518.8 585.867 497.6 602.8 472.933 622.4C448.267 642.133 428 658.533 428 658.933C428 659.333 428.8 659.067 429.733 658.4C431.867 656.667 525.467 592.133 527.6 590.8C529.867 589.6 535.467 592.667 550.933 603.467L563.867 612.533L587.6 596C600.667 587.067 611.733 579.867 612.267 580.133C612.8 580.533 613.733 579.733 614.4 578.533C615.067 577.333 615.867 576.667 616.267 576.933C616.667 577.067 639.867 561.6 667.867 542.267C712.133 511.6 718.933 507.333 721.333 508.667C722.8 509.467 724 509.733 724 509.333C724 508.267 717.067 498 716.4 498C716 498 714 499.2 711.733 500.8C709.6 502.4 707.6 503.333 707.2 503.067C706.933 502.667 706.8 469.6 706.933 429.467L707.333 356.667L712.533 360.133C718.133 364 717.467 364 726.4 358.267L729.333 356.4V434.667C729.333 507.733 729.467 513.2 731.733 514.8C733.2 515.867 733.6 516.933 732.667 517.733C732 518.533 709.733 536.267 683.333 557.333C638.133 593.2 623.333 606.133 642.8 592.533C647.467 589.2 671.6 572.533 696.4 555.467L741.467 524.4L745.733 526.133C750.667 528.133 758.667 533.067 758.533 534C758.533 534.4 738.267 550.667 713.6 570.267C671.867 603.467 659.733 613.2 663.333 611.2C664 610.667 687.333 594.667 715.2 575.333L765.733 540.4L770.667 542.667C773.333 543.867 777.2 546.133 779.067 547.733L782.667 550.667L733.333 589.867C706.267 611.467 684 629.333 684 629.6C684 629.867 688.667 626.8 694.4 622.8C700 618.8 723.867 602.4 747.2 586.267C785.2 560 790.133 556.933 792.533 558.4C794.133 559.2 795.6 560 796 560C796.4 560 798.933 561.6 801.733 563.467L806.8 566.933L758.4 605.333C711.2 642.8 705.467 647.467 708.933 645.467C709.867 644.933 733.333 628.8 760.933 609.733C788.533 590.533 812.133 574.667 813.333 574.4C815.467 573.867 829.333 581.333 829.333 583.2C829.333 583.733 808 601.2 782 621.867C756 642.533 734.667 659.867 734.667 660.267C734.667 660.533 737.467 658.8 741.067 656.267C744.533 653.867 765.067 639.6 786.667 624.667C808.267 609.733 828.4 595.867 831.467 593.733C838.133 588.933 838.667 589.2 858.533 602.933L872.4 612.667L878.533 608.267C898 594.267 919.2 580.133 919.467 580.667C919.733 581.067 920.8 580.133 922 578.667C923.2 577.2 923.733 576.933 923.2 578C922.533 579.067 925.067 577.867 928.667 575.2C932.4 572.533 955.867 556.133 981.067 538.8C1020.53 511.467 1027.07 507.467 1029.33 508.667C1030.8 509.467 1032 509.6 1032 509.067C1032 507.6 1025.47 498 1024.53 498C1024.13 498 1022.13 499.2 1020.27 500.8L1016.67 503.6L1016 429.467L1015.33 355.333L944.133 404.8C889.467 442.667 872.4 454 870.667 453.067C865.067 450.4 730.8 356.267 731.333 355.467C731.6 354.933 739.6 349.2 748.933 342.667C814 297.6 850.267 272.4 860.533 264.933C871.333 257.067 872.533 256.533 875.733 257.867C878.933 259.467 879.067 259.333 877.067 256.4C876 254.667 874.267 252 873.2 250.267C870.933 246.667 870 246.667 865.6 250.133L862 252.933L861.333 180.133L860.667 107.2L842.667 119.733C832.8 126.533 800.667 148.8 771.467 169.067C722 203.467 718.133 205.867 715.467 204.267C713.867 203.2 681.867 180.933 644.267 154.8C606.533 128.667 575.6 107.333 575.2 107.333C574.933 107.333 574.667 142.667 574.667 185.733Z" fill="white"/>
<path d="M512 286.133C485.2 307.467 462.4 325.733 461.334 326.8C460.267 328 482.934 312.533 511.867 292.533C558.534 260.4 564.667 256.4 566.934 257.867C568.4 258.8 569.734 259.333 570 259.067C570.667 258.4 563.467 248.267 562 247.733C561.334 247.6 538.8 264.8 512 286.133Z" fill="white"/>
<path d="M841.333 303.2C813.867 325.067 791.2 343.867 790.8 344.8C790.4 346.267 790.667 346.267 792.133 345.2C793.2 344.4 816.8 327.867 844.667 308.667C892.4 275.6 895.467 273.733 898.933 275.067C902.4 276.4 902.533 276.267 901.067 273.6C898.267 268 894.533 263.333 892.933 263.333C892 263.333 868.8 281.333 841.333 303.2Z" fill="white"/>
<path d="M869.2 318.133C843.2 338.8 820.8 356.8 819.333 358.267C817.2 360.4 864.267 328.267 910.267 296.267C918.933 290.267 920.267 289.733 923.2 291.067L926.533 292.533L922.933 286.667C920.933 283.333 918.667 280.667 917.867 280.667C916.933 280.667 895.067 297.467 869.2 318.133Z" fill="white"/>
<path d="M892 335.467C865.2 356.667 842.4 375.067 841.334 376.133C840.267 377.333 862.934 362 891.6 342C937.2 310.533 944.267 306 946.667 307.333C948.134 308.133 949.334 308.4 949.334 308C949.334 306.8 942.4 296.667 941.467 296.667C941.067 296.667 918.8 314.133 892 335.467Z" fill="white"/>
<path d="M915.067 352.533C872.267 386.533 857.333 398.8 865.333 393.2C866.4 392.4 889.733 376.267 917.067 357.467C959.067 328.4 967.333 323.2 970.133 323.867L973.6 324.8L971.067 320.667C965.733 311.467 968.933 309.467 915.067 352.533Z" fill="white"/>
<path d="M938 369.467C888.8 408.667 880 416 892.667 407.067C896.4 404.533 920 388.133 945.2 370.667C987.734 341.333 991.2 339.2 994.4 340.533L997.6 342.133L994.267 336.4C992.4 333.2 990.134 330.533 989.067 330.4C988.134 330.133 965.2 347.733 938 369.467Z" fill="white"/>
<path d="M356.533 538.133C328.667 560.133 305.467 578.8 304.667 579.6C304 580.4 307.2 578.4 312 575.067C330.933 561.867 407.467 509.2 409.067 508.133C410 507.6 411.6 507.867 412.8 508.8C413.867 509.6 415.067 510.133 415.333 509.733C416.133 509.067 409.067 498 407.867 498C407.333 498 384.267 516 356.533 538.133Z" fill="white"/>
<path d="M994.667 554.8C966.4 577.333 943.2 596.267 943.067 596.933C942.934 597.467 943.2 597.467 943.6 596.667C943.867 596 944.8 595.333 945.6 595.333C946.4 595.333 970 579.467 998.134 560C1026.27 540.533 1050.13 524.667 1051.07 524.667C1052 524.667 1053.6 525.467 1054.53 526.267C1056.13 527.733 1056.27 527.467 1055.47 525.333C1054 521.2 1048.8 514 1047.33 514C1046.67 514 1022.93 532.4 994.667 554.8Z" fill="white"/>
<path d="M1023.07 569.067C983.067 601.067 965.733 615.333 974.667 609.067C982.133 603.867 1071.6 542.267 1072.93 541.467C1073.87 540.933 1075.87 541.2 1077.33 542C1078.8 542.8 1080 543.067 1080 542.667C1080 540.8 1072.8 531.333 1071.47 531.467C1070.67 531.467 1048.93 548.4 1023.07 569.067Z" fill="white"/>
<path d="M1047.2 585.467C1020.93 606.4 998.4 624.4 997.333 625.6C995.2 627.733 998.533 625.6 1060.53 582.933C1080.93 568.8 1098 557.467 1098.53 557.6C1098.93 557.733 1100.53 558.267 1101.87 558.8C1104.4 559.733 1104.4 559.733 1101.87 555.467C1096.13 545.733 1099.73 543.733 1047.2 585.467Z" fill="white"/>
<path d="M1070 602.8C1022.4 640.667 1011.87 649.333 1024.67 640.533C1113.47 578.8 1121.47 573.6 1124.93 575.2L1128.27 576.8L1124.93 571.067C1123.07 567.867 1120.8 565.2 1119.73 564.933C1118.8 564.8 1096.4 581.733 1070 602.8Z" fill="white"/>
<path d="M1093.33 619.467C1066.53 640.8 1044.13 658.8 1043.33 659.6C1041.6 661.6 1042.4 661.067 1097.87 622.667C1140.53 593.2 1146 589.733 1148.27 591.2C1149.73 592.133 1151.07 592.667 1151.33 592.4C1152 591.733 1144.8 581.6 1143.33 581.067C1142.67 580.933 1120.13 598.133 1093.33 619.467Z" fill="white"/>
<path d="M266.667 684.933V764L337.2 812.933C376 839.867 408.4 862.133 409.2 862.267C410 862.533 442.667 840.4 481.867 813.333L553.2 764L553.333 685.467C553.333 617.733 553.067 607.2 551.467 607.733C550.4 608.133 518.267 630.267 480 656.667C440.667 684 409.867 704.667 408.8 704.267C407.067 703.6 280.933 616.4 271.067 609.067L266.667 605.867V684.933Z" fill="white"/>
<path d="M790 655.467C751.2 682.533 718.8 704.667 718 704.667C717.333 704.667 685.2 682.667 646.667 656C608.267 629.2 576.267 607.333 575.733 607.333C575.067 607.333 574.667 642.533 574.667 685.6L574.8 764L646 813.333C685.333 840.4 718 862.533 718.8 862.267C719.6 862.133 752 839.867 790.8 812.933L861.333 764V684.933C861.333 641.6 861.2 606 861.067 606.133C860.8 606.133 828.933 628.4 790 655.467Z" fill="white"/>
<path d="M884 685.867V764.4L955.2 813.867L1026.4 863.333L1097.87 813.733L1169.33 764.267V685.733C1169.33 642.667 1168.93 607.333 1168.53 607.333C1168.13 607.333 1136.8 628.933 1098.8 655.333C1060.8 681.733 1028.67 703.6 1027.6 704.133C1026.27 704.667 1001.2 688 955.333 656.133C916.667 629.333 884.8 607.333 884.533 607.333C884.267 607.333 884 642.667 884 685.867Z" fill="white"/>
<path d="M18.8 925.467C14.2667 928.667 12.4 934.4 10.5334 950.667C9.06671 963.333 8.26671 965.733 5.06671 969.333C1.86671 973.067 1.60005 973.867 3.20005 976C4.26671 977.467 5.60005 978 6.66671 977.333C8.00005 976.533 8.13338 978.8 7.46671 988.133C6.93338 994.667 5.73338 1020.93 4.66671 1046.67C2.80005 1091.73 2.00005 1103.73 0.533379 1114.27C-0.133287 1118.67 0.133379 1119.33 2.40005 1119.33C6.13338 1119.33 7.06671 1113.87 12 1062.67C21.4667 965.6 21.6 963.733 27.4667 951.867C33.7334 939.2 34.2667 931.067 28.9334 926.533C24.5334 922.8 22.9334 922.533 18.8 925.467Z" fill="white"/>
<path d="M950 985.2C926.8 996.133 909.333 1019.07 909.333 1038.4C909.333 1051.47 916.667 1061.87 934.933 1075.2C943.867 1081.6 945.333 1083.87 945.333 1091.07C945.333 1099.47 941.067 1104.27 925.333 1112.93C908.267 1122.53 904 1126.27 904 1132.13C904 1141.2 911.467 1143.2 921.467 1136.93C924.8 1134.8 932.267 1127.87 938 1121.33C944.933 1113.73 952.533 1107.2 959.733 1102.53C965.733 1098.53 971.067 1095.33 971.333 1095.33C971.733 1095.33 972 1098.4 972 1102.13C972 1108.13 972.533 1109.47 976.533 1113.47C980.133 1117.07 982.133 1118 986.133 1118C998.8 1118 1014.93 1106.27 1038.8 1080L1056.67 1060.27L1057.47 1069.73C1058.27 1081.2 1061.73 1086.93 1073.6 1096.8C1078.27 1100.53 1082.13 1104.13 1082.4 1104.67C1082.67 1105.33 1077.87 1107.33 1071.73 1109.33C1047.2 1117.47 1034.13 1126.13 1029.87 1137.33C1025.2 1149.87 1031.6 1163.07 1045.07 1168.27C1054.13 1171.73 1072.8 1171.33 1082.8 1167.47C1108.93 1157.47 1116.67 1135.87 1102 1114L1097.47 1107.2L1104.4 1104.13C1108.27 1102.53 1115.2 1098.67 1120 1095.87L1128.67 1090.53L1127.47 1098C1126 1106.67 1126.8 1110.8 1130.8 1115.73C1132.93 1118.53 1134.67 1119.33 1138.93 1119.33C1143.73 1119.33 1145.2 1118.53 1151.6 1112.13C1156.93 1106.8 1158.67 1105.6 1158.27 1107.73C1155.87 1117.73 1155.73 1121.07 1158 1126.8C1160.67 1133.87 1166 1137.33 1172.27 1135.87C1180.27 1134.13 1192.13 1120.53 1213.73 1088.67C1227.6 1068.13 1233.6 1060 1234.8 1060.13C1235.47 1060.27 1237.6 1060.4 1239.73 1060.53C1247.6 1060.93 1247.73 1062 1240.4 1077.6C1231.2 1097.07 1226.67 1112 1226.67 1122.93C1226.67 1138.67 1232.93 1145.47 1244.4 1142C1251.47 1139.87 1267.47 1124 1281.47 1105.47L1291.33 1092.13L1292 1100.8C1292.8 1110.8 1294.67 1114.53 1300 1117.33C1309.07 1122 1318.13 1118.53 1326.13 1107.33C1330.53 1101.2 1331.33 1100.67 1336.53 1100.67C1347.73 1100.67 1356.4 1094.27 1373.73 1073.47L1376.93 1069.47L1381.2 1082.13C1387.2 1100.13 1386.13 1108.4 1377.33 1114.27C1373.6 1116.8 1372.53 1118.4 1372.27 1122.53C1371.2 1135.87 1384.53 1133.6 1393.87 1118.8C1397.87 1112.67 1399.73 1111.2 1407.2 1108C1412 1106 1420.27 1103.33 1425.6 1102C1430.8 1100.8 1435.33 1099.2 1435.6 1098.53C1436.27 1096.53 1414.8 1099.07 1402.27 1102.4C1401.6 1102.53 1400.93 1099.6 1400.67 1095.87C1400.13 1087.47 1397.73 1081.6 1389.6 1068.67C1386.13 1063.2 1383.33 1057.2 1383.33 1055.47C1383.33 1051.33 1379.47 1048.8 1376.4 1050.8C1374.8 1051.73 1374 1054.13 1373.87 1057.73C1373.73 1064 1369.73 1071.33 1360.67 1082.4C1353.87 1090.53 1342.8 1097.2 1336.93 1096.4L1333.6 1096L1337.07 1088C1339.73 1081.87 1340.53 1077.73 1340.53 1070.27C1340.67 1061.07 1340.4 1060.27 1336.8 1057.07C1333.47 1054.27 1331.87 1053.87 1327.2 1054.4C1324.13 1054.67 1319.73 1056.27 1317.47 1057.87C1315.2 1059.47 1312.8 1060.53 1312 1060C1308.8 1058 1302.8 1063.47 1298.53 1072.27C1293.2 1083.2 1273.47 1109.73 1261.73 1121.6C1253.33 1130 1244 1135.73 1240.4 1134.4C1236.27 1132.8 1239.87 1120.27 1252.27 1092.67C1264.67 1065.2 1264.27 1066.53 1261.87 1064C1258.53 1060.8 1256 1059.73 1244.8 1057.47C1232.13 1054.93 1229.33 1054.8 1229.33 1057.07C1229.33 1058.8 1225.33 1064.8 1204.53 1094.67C1188.67 1117.6 1174.67 1130.53 1170.53 1126.4C1168.8 1124.67 1174.4 1109.07 1182.8 1092.4L1189.33 1079.47L1186.4 1076.67C1184.8 1075.2 1181.6 1073.47 1179.33 1072.8C1174.67 1071.47 1175.2 1070.8 1164.13 1088C1159.87 1094.53 1153.6 1102.53 1150.13 1105.73C1138.67 1116.4 1138 1110.4 1148.27 1088.27C1155.47 1072.67 1155.87 1068.93 1150 1066.27C1142.67 1062.93 1140.53 1064 1135.73 1073.6C1133.33 1078.67 1129.87 1084 1128 1085.6C1124.27 1088.93 1106 1098.13 1098.4 1100.67L1093.33 1102.27L1083.33 1093.2C1073.6 1084.53 1068 1076.13 1068 1070.4C1068 1060.27 1078.67 1037.33 1089.47 1024.4C1092.93 1020.27 1096.13 1015.47 1096.67 1014C1097.73 1010.53 1094.13 1006 1090.13 1006C1085.33 1006 1073.2 1020.27 1066.67 1033.33C1062.8 1041.33 1055.6 1051.87 1045.33 1064.67C1018.93 1098 1004.93 1110 992.933 1110C985.2 1110 984 1107.07 987.333 1095.6C989.2 1089.6 990.133 1088.4 996.533 1084.67C1000.53 1082.4 1005.6 1078.53 1007.87 1075.87C1017.6 1064.93 1008.53 1055.2 994.133 1061.2C987.467 1064 980.133 1072.13 975.733 1081.33C972.267 1088.8 971.067 1090.13 964.133 1093.87C959.867 1096.13 956 1098 955.733 1098C955.333 1098 955.333 1095.07 955.733 1091.33C956.667 1080.8 951.867 1072.4 937.867 1060.53C931.6 1055.33 925.333 1049.07 923.867 1046.8C918.533 1038.13 921.733 1020.4 930.667 1008.93C932.267 1007.07 939.6 1002.4 946.933 998.667C961.333 991.467 964.267 988.8 961.867 984.933C959.733 981.6 957.467 981.6 950 985.2ZM1333.87 1060C1336.8 1063.07 1337.73 1066.93 1336.8 1073.2C1335.6 1080.8 1328.67 1095.33 1326.13 1095.33C1323.2 1095.33 1315.2 1086.93 1314.4 1083.07C1314.13 1081.33 1314.53 1078.13 1315.47 1076C1316.4 1073.73 1317.2 1070.13 1317.33 1067.73C1317.33 1060.13 1328.67 1054.8 1333.87 1060ZM1002.13 1074.53C1000 1077.87 994.667 1081.6 994.667 1079.73C994.667 1078.4 1003.07 1069.87 1003.73 1070.67C1004.13 1070.93 1003.33 1072.8 1002.13 1074.53ZM1321.33 1097.33C1325.2 1098.53 1324.67 1100.4 1319.07 1105.6C1315.6 1108.67 1312.93 1110 1310.67 1109.73C1307.6 1109.33 1307.33 1108.93 1307.47 1102C1307.47 1098 1308.27 1092.93 1309.2 1090.8L1310.8 1086.8L1314.8 1091.73C1316.93 1094.4 1319.87 1096.93 1321.33 1097.33ZM1094.27 1118.4C1104.93 1134.27 1100.13 1148.4 1081.73 1155.33C1068.53 1160.27 1050.4 1159.07 1044.67 1152.67C1041.47 1149.07 1040.67 1140.53 1043.07 1135.73C1044.27 1133.47 1048.27 1129.73 1052 1127.33C1060 1122.27 1085.07 1111.33 1088 1111.73C1089.07 1111.87 1091.87 1114.93 1094.27 1118.4Z" fill="white"/>
<path d="M188.267 998.267C187.6 999.2 184.8 1004.27 182.267 1009.47C176.667 1020.53 176.4 1020.67 154.4 1020.67H141.334V1025.6V1030.4L157.467 1029.6C172.534 1028.8 173.6 1028.8 172.667 1031.07C170 1037.6 162.267 1061.33 159.734 1070.67C157.334 1080.13 155.867 1082.67 147.067 1093.6C125.067 1120.93 105.334 1133.73 105.334 1120.8C105.334 1113.87 111.734 1094.4 120.667 1074.67C125.467 1064 129.334 1054.53 129.334 1053.47C129.334 1050.67 124.667 1047.33 119.734 1046.53C110.267 1044.93 102.933 1051.87 80.2668 1083.73C67.0668 1102.13 60.5335 1109.6 58.9335 1108C57.8668 1107.07 62.4002 1096 70.1335 1080.27C74.1335 1072.4 77.3335 1064.13 77.3335 1062.13C77.3335 1054.53 68.2668 1051.33 62.9335 1056.93C61.4668 1058.67 58.0002 1064.67 55.3335 1070.27L50.4002 1080.53L39.8668 1082.8C32.8002 1084.4 29.3335 1085.73 29.3335 1087.07C29.3335 1088.53 31.3335 1088.8 38.6668 1088.4L48.1335 1088L47.0668 1092C46.4002 1094.13 46.0002 1099.73 46.0002 1104.27C46.0002 1111.07 46.5335 1113.07 49.2002 1115.87C52.6668 1119.47 57.0668 1120.27 61.4668 1118C62.9335 1117.2 71.2002 1105.87 79.8668 1092.8C94.8002 1070.4 108.934 1051.87 110.134 1052.93C110.4 1053.33 108.267 1058.93 105.334 1065.47C88.2668 1104.4 88.5335 1134 106 1134C114.667 1134 129.6 1121.87 146.4 1101.33C151.867 1094.67 154.8 1091.87 154.134 1094C153.6 1095.87 152.8 1103.07 152.4 1110C151.734 1120.67 152 1123.6 154 1127.33C157.067 1133.33 158.134 1134 164.934 1134C172.667 1134 187.734 1123.73 204.667 1106.67L218.134 1093.2V1100C218.267 1116.93 229.734 1122.4 247.067 1113.47C257.867 1107.73 268.667 1098.53 281.067 1084.27C287.734 1076.8 295.2 1068.53 297.867 1066.13L302.667 1061.47V1065.87C302.667 1077.33 305.2 1082.13 317.467 1094.13L329.334 1105.73L318.267 1109.33C285.467 1120.27 273.734 1130.4 274.934 1147.33C275.6 1157.2 279.6 1162.67 289.2 1167.2C299.067 1171.73 316.667 1172 328.267 1167.73C354.534 1158.13 362.4 1137.6 348.667 1114.8L344.267 1107.33L357.067 1100.67C373.334 1092.4 381.734 1085.07 391.467 1070.67C396.534 1063.2 399.867 1059.47 401.067 1060C402 1060.4 404.134 1060.67 405.734 1060.67C412.267 1060.67 412.8 1062.53 408.4 1070.93C402 1083.2 395.067 1101.73 392.667 1113.07C389.6 1128.53 392.134 1138.8 400 1142C410.934 1146.53 422.534 1136.8 453.6 1096.67C456.4 1092.93 457.067 1092.67 456.4 1094.93C455.334 1099.47 457.2 1107.2 460.134 1110.13C462.934 1112.93 469.334 1113.47 473.734 1111.2C475.334 1110.4 479.6 1106.93 483.2 1103.47C487.334 1099.6 489.334 1098.27 488.8 1100C488.267 1101.47 487.467 1106.27 487.067 1110.8C485.6 1127.2 494.267 1136.93 506 1132.13C511.467 1129.87 526.667 1115.6 538.8 1101.6C543.2 1096.67 546.667 1093.07 546.667 1093.6C546.667 1094.27 545.734 1099.33 544.667 1105.07C542.134 1118.27 542.134 1135.33 544.534 1141.2C552.667 1160.67 576.667 1151.47 603.734 1118.4C614.4 1105.33 630.534 1083.33 630.667 1081.6C630.8 1077.87 625.6 1082.93 614.667 1097.47C591.867 1127.87 574.534 1142.67 563.067 1141.73L558 1141.33L557.6 1134C557.067 1125.33 558.934 1114.8 563.334 1101.6C566.134 1093.2 567.867 1090.53 577.467 1080.67C605.734 1051.07 624 1023.6 624 1010.27C624 993.6 602.667 996 584.667 1014.67C573.734 1026.13 559.867 1051.87 552.667 1074C550 1082.27 545.6 1088.27 529.334 1105.2C512.667 1122.67 500 1129.73 500 1121.6C500 1116.53 503.867 1105.07 511.334 1087.33C515.2 1078.13 518.667 1069.87 518.934 1068.8C519.467 1066.4 511.2 1060.67 507.334 1060.67C505.334 1060.67 503.734 1062.13 502.267 1065.47C500.134 1069.87 497.334 1070.67 497.334 1066.67C497.334 1061.33 485.867 1057.6 478.267 1060.53C473.2 1062.53 465.467 1069.87 462.667 1075.33C458.534 1083.33 440 1107.2 428.934 1118.93C414.667 1133.73 404 1138.8 404 1130.67C404 1125.07 409.6 1109.47 418.8 1089.47C423.867 1078.53 428 1068.27 428 1066.67C428 1062.8 422.134 1059.87 408.134 1057.07C396.8 1054.8 393.334 1055.2 393.334 1058.8C393.334 1062.13 380.134 1080.4 374.134 1085.33C368 1090.27 358.4 1095.33 347.334 1099.47L340 1102.27L332.267 1095.6C313.2 1078.93 311.467 1073.87 318.134 1055.07C322.534 1042.93 327.6 1034 335.334 1024.67C338.667 1020.67 341.734 1015.87 342.267 1014.13C344 1007.47 337.734 1004 331.467 1008.13C326.267 1011.47 316.534 1025.07 311.067 1036.53C306.134 1046.8 300.8 1054 276.934 1082.27C258.934 1103.6 245.867 1112.13 235.2 1109.47C231.867 1108.53 231.734 1108.13 232.267 1102.27C233.2 1092.8 235.867 1088.8 244.534 1083.47C253.867 1077.73 257.734 1072.93 257.734 1067.2C257.734 1061.33 254.267 1058.93 246.8 1059.73C238.8 1060.67 231.067 1066.4 224.267 1076.67C213.467 1093.2 190 1116.27 177.734 1122.53C172.934 1124.93 167.2 1125.33 166 1123.33C163.2 1118.8 180.8 1058.8 195.867 1021.73C199.6 1012.53 202.667 1004.4 202.667 1003.6C202.667 998.667 191.334 994.533 188.267 998.267ZM617.067 1010.93C617.734 1015.47 612 1028.53 604 1040.4C596.267 1052 572.134 1081.2 571.067 1080.27C569.334 1078.53 590.534 1036 600.934 1020.27C608.667 1008.53 616.134 1004.27 617.067 1010.93ZM493.067 1068.93C495.467 1071.33 494.934 1079.2 492.134 1085.47C485.467 1100.13 466.667 1112.53 466.667 1102.27C466.667 1096.27 474.134 1082.53 481.6 1074.67C489.2 1066.93 490.4 1066.27 493.067 1068.93ZM250.667 1070.67C250.667 1071.87 242.267 1080.67 241.067 1080.67C240.4 1080.67 241.734 1078.27 244 1075.33C247.6 1070.67 250.667 1068.53 250.667 1070.67ZM339.734 1117.6C348.667 1131.73 348.267 1140.8 338.267 1149.33C328 1158.13 308 1161.07 295.6 1155.6C290.4 1153.33 289.334 1152.13 288 1147.47C285.467 1137.87 290.4 1130.8 305.334 1123.33C313.067 1119.33 332.267 1111.47 334.134 1111.33C335.067 1111.33 337.467 1114.13 339.734 1117.6Z" fill="white"/>
<path d="M762.667 1001.47C760.4 1003.47 756.133 1008.53 753.2 1012.8C747.2 1021.73 733.333 1049.2 729.2 1060.93L726.267 1068.93L723.067 1064.93C715.067 1054.67 698.533 1057.33 686.667 1070.93C672.8 1086.67 668.8 1114.67 679.2 1123.2C682.267 1125.87 691.467 1125.2 696.533 1122.13C701.2 1119.2 712.533 1107.6 716.133 1102C718.267 1098.8 718.267 1099.07 717.733 1108.13C716.933 1119.2 718.8 1126.27 723.733 1131.6C726.667 1134.8 728.267 1135.33 733.867 1135.33C747.333 1135.33 763.6 1123.6 778.933 1102.93C782.667 1098 785.867 1094 786 1094C786.267 1094 786.4 1097.07 786.4 1100.8C786.4 1108.27 789.067 1113.2 794.8 1116.53C799.733 1119.33 808.8 1117.47 818.667 1111.6C827.067 1106.8 850.667 1084.93 850.667 1082.13C850.667 1078.67 846.8 1081.33 836.667 1091.87C825.467 1103.73 815.333 1110 807.2 1110C802.133 1110 800 1107.87 800 1102.67C800.133 1094.8 804.267 1088.53 812.667 1083.47C820.667 1078.53 826.667 1071.6 826.667 1067.2C826.667 1065.73 825.333 1063.33 823.867 1061.87C817.333 1055.33 802 1062 793.733 1074.67C769.6 1111.6 750.8 1129.2 738 1126.8C732.267 1125.73 731.333 1122.8 732.533 1109.73C735.333 1080 750.133 1041.87 769.467 1015.2C777.733 1003.73 778.4 1002.27 775.733 999.6C773.067 996.933 767.067 997.867 762.667 1001.47ZM721.467 1072.27C726 1084.27 711.733 1108.8 696.267 1115.6C685.733 1120.27 684.4 1116.8 690.533 1101.07C694.667 1090.8 704.4 1076 710.133 1071.47C715.2 1067.47 719.733 1067.87 721.467 1072.27ZM816.533 1073.6C815.333 1075.73 813.2 1078 812.133 1078.93C807.867 1082.13 808 1080.53 812.133 1075.33C817.067 1069.33 820.267 1068.13 816.533 1073.6Z" fill="white"/>
</svg>
