<?xml version="1.0" standalone="no"?>
<!DOCTYPE svg PUBLIC "-//W3C//DTD SVG 20010904//EN"
 "http://www.w3.org/TR/2001/REC-SVG-20010904/DTD/svg10.dtd">
<svg version="1.0" xmlns="http://www.w3.org/2000/svg"
 width="1945.000000pt" height="1297.000000pt" viewBox="0 0 1945.000000 1297.000000"
 preserveAspectRatio="xMidYMid meet">

<g transform="translate(0.000000,1297.000000) scale(0.100000,-0.100000)"
fill="#000000" stroke="none">
<path d="M9668 10956 c-376 -301 -437 -351 -343 -284 28 19 205 142 394 272
286 198 347 237 368 231 l25 -6 -19 31 c-40 69 -15 83 -425 -244z"/>
<path d="M9843 10841 c-205 -163 -378 -302 -385 -308 -41 -42 49 17 396 257
316 219 392 267 407 260 10 -6 21 -10 24 -10 11 0 -39 81 -55 90 -11 6 -116
-73 -387 -289z"/>
<path d="M10044 10724 c-197 -157 -366 -293 -374 -301 -16 -16 45 25 489 330
145 100 266 181 270 180 3 -1 14 -5 24 -8 16 -7 16 -4 -3 28 -12 19 -27 40
-34 46 -9 8 -104 -62 -372 -275z"/>
<path d="M10210 10589 c-201 -159 -369 -295 -375 -301 -5 -6 19 9 55 33 728
504 710 492 737 480 25 -12 26 -11 11 11 -8 13 -21 33 -29 46 -8 12 -18 22
-24 22 -6 0 -174 -131 -375 -291z"/>
<path d="M10385 10464 c-203 -163 -374 -300 -380 -306 -11 -12 28 14 478 326
253 174 302 204 318 196 10 -6 19 -7 19 -3 0 12 -50 83 -58 83 -4 -1 -173
-134 -377 -296z"/>
<path d="M10563 10341 c-205 -163 -376 -301 -380 -306 -12 -12 72 45 446 304
265 183 337 229 348 220 7 -7 15 -10 18 -8 6 6 -44 89 -53 88 -4 0 -175 -134
-379 -298z"/>
<path d="M8990 9852 c0 -444 3 -591 12 -600 8 -8 8 -15 2 -21 -5 -5 -166 -134
-359 -286 -395 -314 -377 -299 -350 -289 11 4 192 126 402 271 210 144 384
263 387 263 10 0 116 -72 115 -79 0 -3 -140 -117 -312 -253 -473 -375 -475
-375 92 16 l284 196 29 -18 c16 -9 43 -28 59 -42 l30 -25 -346 -275 c-191
-151 -349 -278 -352 -283 -3 -5 30 15 73 46 427 297 677 467 686 467 7 0 36
-17 66 -37 l54 -37 -24 -19 c-13 -11 -173 -139 -355 -284 -307 -244 -404 -326
-285 -240 26 19 180 125 342 237 162 112 314 217 337 233 l43 30 55 -37 c30
-20 55 -40 55 -44 0 -4 -157 -133 -350 -287 -192 -153 -350 -280 -350 -282 0
-3 35 20 78 49 42 30 215 150 384 267 l307 212 80 -56 c45 -31 83 -60 86 -65
6 -10 -1034 -734 -1055 -734 -9 0 -250 163 -537 362 -287 199 -524 362 -527
362 -3 0 -6 -265 -6 -590 0 -549 1 -590 17 -599 10 -5 16 -12 13 -14 -3 -3
-167 -134 -365 -292 -198 -157 -362 -291 -364 -297 -5 -14 -30 -31 378 252
196 135 368 254 384 264 24 16 31 17 60 5 40 -16 87 -48 87 -59 0 -5 -150
-128 -332 -273 -313 -249 -389 -310 -363 -296 5 3 178 122 383 264 418 288
370 267 464 206 l38 -24 -358 -284 c-196 -156 -361 -289 -367 -295 -12 -14
-23 -21 413 281 l364 251 46 -26 c59 -32 79 -51 67 -62 -6 -5 -165 -132 -355
-282 -190 -150 -352 -280 -360 -288 -19 -19 -24 -22 408 277 200 138 367 251
372 251 9 0 73 -35 110 -60 13 -9 13 -11 -1 -22 -8 -7 -167 -134 -352 -281
-185 -148 -337 -271 -337 -274 0 -3 6 -1 13 4 16 13 718 497 734 507 17 9 59
-14 175 -95 l97 -68 178 124 c98 67 181 121 185 119 4 -3 11 3 16 12 5 9 11
14 14 12 3 -1 177 115 387 260 332 230 383 262 401 252 11 -6 20 -8 20 -5 0 8
-52 85 -57 85 -3 0 -18 -9 -35 -21 -16 -12 -31 -19 -34 -17 -2 3 -3 251 -2
552 l3 546 39 -26 c42 -29 37 -29 104 14 l22 14 0 -587 c0 -548 1 -589 18
-601 11 -8 14 -16 7 -22 -5 -6 -172 -139 -370 -297 -339 -269 -450 -366 -304
-264 35 25 216 150 402 278 l338 233 32 -13 c37 -15 97 -52 96 -59 0 -3 -152
-125 -337 -272 -313 -249 -404 -322 -377 -307 5 4 180 124 389 269 l379 262
37 -17 c20 -9 49 -26 63 -38 l27 -22 -370 -294 c-203 -162 -370 -296 -370
-298 0 -2 35 21 78 51 42 30 221 153 396 274 285 197 322 220 340 209 12 -6
23 -12 26 -12 3 0 22 -12 43 -26 l38 -26 -363 -288 c-354 -281 -397 -316 -371
-301 7 4 183 125 390 268 207 144 384 263 393 265 16 4 120 -52 120 -66 0 -4
-160 -135 -355 -290 -195 -155 -355 -285 -355 -288 0 -2 21 11 48 30 26 18
180 125 342 237 162 112 313 216 336 232 50 36 54 34 203 -69 l104 -73 46 33
c146 105 305 211 307 207 2 -3 10 4 19 15 9 11 13 13 9 5 -5 -8 14 1 41 21 28
20 204 143 393 273 296 205 345 235 362 226 11 -6 20 -7 20 -3 0 11 -49 83
-56 83 -3 0 -18 -9 -32 -21 l-27 -21 -5 556 -5 556 -534 -371 c-410 -284 -538
-369 -551 -362 -42 20 -1049 726 -1045 732 2 4 62 47 132 96 488 338 760 527
837 583 81 59 90 63 114 53 24 -12 25 -11 10 11 -8 13 -21 33 -29 46 -17 27
-24 27 -57 1 l-27 -21 -5 546 -5 547 -135 -94 c-74 -51 -315 -218 -534 -370
-371 -258 -400 -276 -420 -264 -12 8 -252 175 -534 371 -283 196 -515 356
-518 356 -2 0 -4 -265 -4 -588z"/>
<path d="M8520 9099 c-201 -160 -372 -297 -380 -305 -8 -9 162 107 379 257
350 241 396 271 413 260 11 -7 21 -11 23 -9 5 5 -49 81 -60 85 -5 1 -174 -128
-375 -288z"/>
<path d="M10990 8971 c-206 -164 -376 -305 -379 -312 -3 -11 -1 -11 10 -3 8 6
185 130 394 274 358 248 381 262 407 252 26 -10 27 -9 16 11 -21 42 -49 77
-61 77 -7 0 -181 -135 -387 -299z"/>
<path d="M11199 8859 c-195 -155 -363 -290 -374 -301 -16 -16 337 225 682 465
65 45 75 49 97 39 l25 -11 -27 44 c-15 25 -32 45 -38 45 -7 0 -171 -126 -365
-281z"/>
<path d="M11370 8729 c-201 -159 -372 -297 -380 -305 -8 -9 162 106 377 256
342 236 395 270 413 260 11 -6 20 -8 20 -5 0 9 -52 85 -59 85 -3 0 -170 -131
-371 -291z"/>
<path d="M11543 8601 c-321 -255 -433 -347 -373 -305 8 6 183 127 388 268 315
218 377 257 398 252 l26 -7 -19 31 c-40 69 -16 84 -420 -239z"/>
<path d="M11715 8474 c-369 -294 -435 -349 -340 -282 28 19 205 142 394 273
319 220 345 236 369 226 l24 -12 -25 43 c-14 24 -31 44 -39 45 -7 2 -179 -130
-383 -293z"/>
<path d="M7354 7209 c-209 -165 -383 -305 -389 -311 -5 -6 19 9 55 34 142 99
716 494 728 502 7 4 19 2 28 -5 8 -6 17 -10 19 -7 6 5 -47 88 -56 88 -4 0
-177 -135 -385 -301z"/>
<path d="M12140 7084 c-212 -169 -386 -311 -387 -316 -1 -4 1 -4 4 2 2 5 9 10
15 10 6 0 183 119 394 265 211 146 390 265 397 265 7 0 19 -6 26 -12 12 -11
13 -9 7 7 -11 31 -50 85 -61 85 -5 0 -183 -138 -395 -306z"/>
<path d="M12353 6977 c-300 -240 -430 -347 -363 -300 56 39 727 501 737 507 7
4 22 2 33 -4 11 -6 20 -8 20 -5 0 14 -54 85 -64 84 -6 0 -169 -127 -363 -282z"/>
<path d="M12534 6854 c-197 -157 -366 -292 -374 -301 -16 -16 9 0 474 320 153
106 281 191 285 190 3 -1 15 -5 25 -9 19 -7 19 -7 0 25 -43 73 -16 88 -410
-225z"/>
<path d="M12705 6724 c-357 -284 -436 -349 -340 -283 666 463 726 502 752 490
l25 -12 -25 43 c-14 24 -31 44 -39 46 -7 1 -175 -126 -373 -284z"/>
<path d="M12880 6599 c-201 -160 -369 -295 -375 -301 -13 -15 -7 -11 409 277
320 221 361 247 378 236 11 -7 21 -11 23 -9 5 5 -49 81 -60 85 -5 1 -174 -128
-375 -288z"/>
<path d="M6680 6108 l0 -593 529 -367 c291 -202 534 -369 540 -370 6 -2 251
164 545 367 l535 370 1 589 c0 508 -2 587 -14 583 -8 -3 -249 -169 -536 -367
-295 -205 -526 -360 -534 -357 -13 5 -959 659 -1033 714 l-33 24 0 -593z"/>
<path d="M10605 6329 c-291 -203 -534 -369 -540 -369 -5 0 -246 165 -535 365
-288 201 -528 365 -532 365 -5 0 -8 -264 -8 -587 l1 -588 534 -370 c295 -203
540 -369 546 -367 6 1 249 168 540 370 l529 367 0 593 c0 325 -1 592 -2 591
-2 0 -241 -167 -533 -370z"/>
<path d="M11310 6101 l0 -589 534 -371 534 -371 536 372 536 371 0 589 c0 323
-3 588 -6 588 -3 0 -238 -162 -523 -360 -285 -198 -526 -362 -534 -366 -10 -4
-198 121 -542 360 -290 201 -529 366 -531 366 -2 0 -4 -265 -4 -589z"/>
<path d="M4821 4304 c-34 -24 -48 -67 -62 -189 -11 -95 -17 -113 -41 -140 -24
-28 -26 -34 -14 -50 8 -11 18 -15 26 -10 10 6 11 -11 6 -81 -4 -49 -13 -246
-21 -439 -14 -338 -20 -428 -31 -507 -5 -33 -3 -38 14 -38 28 0 35 41 72 425
71 728 72 742 116 831 47 95 51 156 11 190 -33 28 -45 30 -76 8z"/>
<path d="M11805 3856 c-174 -82 -305 -254 -305 -399 0 -98 55 -176 192 -276
67 -48 78 -65 78 -119 0 -63 -32 -99 -150 -164 -128 -72 -160 -100 -160 -144
0 -68 56 -83 131 -36 25 16 81 68 124 117 52 57 109 106 163 141 45 30 85 54
87 54 3 0 5 -23 5 -51 0 -45 4 -55 34 -85 27 -27 42 -34 72 -34 95 0 216 88
395 285 l134 148 6 -71 c6 -86 32 -129 121 -203 35 -28 64 -55 66 -59 2 -5
-34 -20 -80 -35 -184 -61 -282 -126 -314 -210 -35 -94 13 -193 114 -232 68
-26 208 -23 283 6 196 75 254 237 144 401 l-34 51 52 23 c29 12 81 41 117 62
l65 40 -9 -56 c-11 -65 -5 -96 25 -133 16 -21 29 -27 61 -27 36 0 47 6 95 54
40 40 53 49 50 33 -18 -75 -19 -100 -2 -143 20 -53 60 -79 107 -68 60 13 149
115 311 354 104 154 149 215 158 214 5 -1 21 -2 37 -3 59 -3 60 -11 5 -128
-69 -146 -103 -258 -103 -340 0 -118 47 -169 133 -143 53 16 173 135 278 274
l74 100 5 -65 c6 -75 20 -103 60 -124 68 -35 136 -9 196 75 33 46 39 50 78 50
84 0 149 48 279 204 l24 30 32 -95 c45 -135 37 -197 -29 -241 -28 -19 -36 -31
-38 -62 -8 -100 92 -83 162 28 30 46 44 57 100 81 36 15 98 35 138 45 39 9 73
21 75 26 5 15 -156 -4 -250 -29 -5 -1 -10 21 -12 49 -4 63 -22 107 -83 204
-26 41 -47 86 -47 99 0 31 -29 50 -52 35 -12 -7 -18 -25 -19 -52 -1 -47 -31
-102 -99 -185 -51 -61 -134 -111 -178 -105 l-25 3 26 60 c20 46 26 77 26 133
1 69 -1 75 -28 99 -25 21 -37 24 -72 20 -23 -2 -56 -14 -73 -26 -17 -12 -35
-20 -41 -16 -24 15 -69 -26 -101 -92 -40 -82 -188 -281 -276 -370 -63 -63
-133 -106 -160 -96 -31 12 -4 106 89 313 93 206 90 196 72 215 -25 24 -44 32
-128 49 -95 19 -116 20 -116 3 0 -13 -30 -58 -186 -282 -119 -172 -224 -269
-255 -238 -13 13 29 130 92 255 l49 97 -22 21 c-12 11 -36 24 -53 29 -35 10
-31 15 -114 -114 -32 -49 -79 -109 -105 -133 -86 -80 -91 -35 -14 131 54 117
57 145 13 165 -55 25 -71 17 -107 -55 -18 -38 -44 -78 -58 -90 -28 -25 -165
-94 -222 -113 l-38 -12 -75 68 c-73 65 -115 128 -115 171 0 76 80 248 161 345
26 31 50 67 54 78 8 26 -19 60 -49 60 -36 0 -127 -107 -176 -205 -29 -60 -83
-139 -160 -235 -198 -250 -303 -340 -393 -340 -58 0 -67 22 -42 108 14 45 21
54 69 82 30 17 68 46 85 66 73 82 5 155 -103 110 -50 -21 -105 -82 -138 -151
-26 -56 -35 -66 -87 -94 -32 -17 -61 -31 -63 -31 -3 0 -3 22 0 50 7 79 -29
142 -134 231 -47 39 -94 86 -105 103 -40 65 -16 198 51 284 12 14 67 49 122
77 108 54 130 74 112 103 -16 25 -33 25 -89 -2z m2879 -561 c22 -23 29 -52 22
-99 -9 -57 -61 -166 -80 -166 -22 0 -82 63 -88 92 -2 13 1 37 8 53 7 17 13 44
14 62 0 57 85 97 124 58z m-2488 -109 c-16 -25 -56 -53 -56 -39 0 10 63 74 68
68 3 -2 -3 -16 -12 -29z m2394 -171 c29 -9 25 -23 -17 -62 -26 -23 -46 -33
-63 -31 -23 3 -25 6 -24 58 0 30 6 68 13 84 l12 30 30 -37 c16 -20 38 -39 49
-42z m-1703 -158 c80 -119 44 -225 -94 -277 -99 -37 -235 -28 -278 20 -24 27
-30 91 -12 127 9 17 39 45 67 63 60 38 248 120 270 117 8 -1 29 -24 47 -50z"/>
<path d="M6092 3758 c-5 -7 -26 -45 -45 -84 -42 -83 -44 -84 -209 -84 l-98 0
0 -37 0 -36 121 6 c113 6 121 6 114 -11 -20 -49 -78 -227 -97 -297 -18 -71
-29 -90 -95 -172 -165 -205 -313 -301 -313 -204 0 52 48 198 115 346 36 80 65
151 65 159 0 21 -35 46 -72 52 -71 12 -126 -40 -296 -279 -99 -138 -148 -194
-160 -182 -8 7 26 90 84 208 30 59 54 121 54 136 0 57 -68 81 -108 39 -11 -13
-37 -58 -57 -100 l-37 -77 -79 -17 c-53 -12 -79 -22 -79 -32 0 -11 15 -13 70
-10 l71 3 -8 -30 c-5 -16 -8 -58 -8 -92 0 -51 4 -66 24 -87 26 -27 59 -33 92
-16 11 6 73 91 138 189 112 168 218 307 227 299 2 -3 -14 -45 -36 -94 -128
-292 -126 -514 5 -514 65 0 177 91 303 245 41 50 63 71 58 55 -4 -14 -10 -68
-13 -120 -5 -80 -3 -102 12 -130 23 -45 31 -50 82 -50 58 0 171 77 298 205
l101 101 0 -51 c1 -127 87 -168 217 -101 81 43 162 112 255 219 50 56 106 118
126 136 l36 35 0 -33 c0 -86 19 -122 111 -212 l89 -87 -83 -27 c-246 -82 -334
-158 -325 -285 5 -74 35 -115 107 -149 74 -34 206 -36 293 -4 197 72 256 226
153 397 l-33 56 96 50 c122 62 185 117 258 225 38 56 63 84 72 80 7 -3 23 -5
35 -5 49 0 53 -14 20 -77 -48 -92 -100 -231 -118 -316 -23 -116 -4 -193 55
-217 82 -34 169 39 402 340 21 28 26 30 21 13 -8 -34 6 -92 28 -114 21 -21 69
-25 102 -8 12 6 44 32 71 58 31 29 46 39 42 26 -4 -11 -10 -47 -13 -81 -11
-123 54 -196 142 -160 41 17 155 124 246 229 33 37 59 64 59 60 0 -5 -7 -43
-15 -86 -19 -99 -19 -227 -1 -271 61 -146 241 -77 444 171 80 98 201 263 202
276 1 28 -38 -10 -120 -119 -171 -228 -301 -339 -387 -332 l-38 3 -3 55 c-4
65 10 144 43 243 21 63 34 83 106 157 212 222 349 428 349 528 0 125 -160 107
-295 -33 -82 -86 -186 -279 -240 -445 -20 -62 -53 -107 -175 -234 -125 -131
-220 -184 -220 -123 0 38 29 124 85 257 29 69 55 131 57 139 4 18 -58 61 -87
61 -15 0 -27 -11 -38 -36 -16 -33 -37 -39 -37 -9 0 40 -86 68 -143 46 -38 -15
-96 -70 -117 -111 -31 -60 -170 -239 -253 -327 -107 -111 -187 -149 -187 -88
0 42 42 159 111 309 38 82 69 159 69 171 0 29 -44 51 -149 72 -85 17 -111 14
-111 -13 0 -25 -99 -162 -144 -199 -46 -37 -118 -75 -201 -106 l-55 -21 -58
50 c-143 125 -156 163 -106 304 33 91 71 158 129 228 25 30 48 66 52 79 13 50
-34 76 -81 45 -39 -25 -112 -127 -153 -213 -37 -77 -77 -131 -256 -343 -135
-160 -233 -224 -313 -204 -25 7 -26 10 -22 54 7 71 27 101 92 141 70 43 99 79
99 122 0 44 -26 62 -82 56 -60 -7 -118 -50 -169 -127 -81 -124 -257 -297 -349
-344 -36 -18 -79 -21 -88 -6 -21 34 111 484 224 762 28 69 51 130 51 136 0 37
-85 68 -108 40z m3216 -95 c5 -34 -38 -132 -98 -221 -58 -87 -239 -306 -247
-299 -13 13 146 332 224 450 58 88 114 120 121 70z m-930 -435 c18 -18 14 -77
-7 -124 -50 -110 -191 -203 -191 -126 0 45 56 148 112 207 57 58 66 63 86 43z
m-1818 -13 c0 -9 -63 -75 -72 -75 -5 0 5 18 22 40 27 35 50 51 50 35z m668
-352 c67 -106 64 -174 -11 -238 -77 -66 -227 -88 -320 -47 -39 17 -47 26 -57
61 -19 72 18 125 130 181 58 30 202 89 216 90 7 0 25 -21 42 -47z"/>
<path d="M10400 3734 c-17 -15 -49 -53 -71 -85 -45 -67 -149 -273 -180 -361
l-22 -60 -24 30 c-60 77 -184 57 -273 -45 -104 -118 -134 -328 -56 -392 23
-20 92 -15 130 8 35 22 120 109 147 151 16 24 16 22 12 -46 -6 -83 8 -136 45
-176 22 -24 34 -28 76 -28 101 0 223 88 338 243 28 37 52 67 53 67 2 0 3 -23
3 -51 0 -56 20 -93 63 -118 37 -21 105 -7 179 37 63 36 240 200 240 221 0 26
-29 6 -105 -73 -84 -89 -160 -136 -221 -136 -38 0 -54 16 -54 55 1 59 32 106
95 144 60 37 105 89 105 122 0 11 -10 29 -21 40 -49 49 -164 -1 -226 -96 -181
-277 -322 -409 -418 -391 -43 8 -50 30 -41 128 21 223 132 509 277 709 62 86
67 97 47 117 -20 20 -65 13 -98 -14z m-309 -531 c34 -90 -73 -274 -189 -325
-79 -35 -89 -9 -43 109 31 77 104 188 147 222 38 30 72 27 85 -6z m713 -10
c-9 -16 -25 -33 -33 -40 -32 -24 -31 -12 0 27 37 45 61 54 33 13z"/>
</g>
</svg>
